<?xml version="1.0" encoding="UTF-8" standalone="no"?>
<svg xmlns:svg="http://www.w3.org/2000/svg"
xmlns="http://www.w3.org/2000/svg" version="1.1"
width="360" height="185">
<!-- Created with the Wikimedia parliament diagram creator (http://parliamentdiagram.toolforge.org/parliamentinputform.html) -->
<g>
<text x="175" y="175" style="font-size:36px;font-weight:bold;text-align:center;text-anchor:middle;font-family:sans-serif">225</text>
  <g style="fill:#4D76FF; stroke-width:0.00; stroke:#000000" id="Party1">
    <circle cx="11.32" cy="175.00" r="5.00"/>
    <circle cx="23.83" cy="175.00" r="5.00"/>
    <circle cx="36.34" cy="175.00" r="5.00"/>
    <circle cx="48.85" cy="175.00" r="5.00"/>
    <circle cx="61.36" cy="175.00" r="5.00"/>
    <circle cx="73.87" cy="175.00" r="5.00"/>
    <circle cx="86.38" cy="175.00" r="5.00"/>
    <circle cx="98.90" cy="175.01" r="5.00"/>
    <circle cx="12.32" cy="160.98" r="5.00"/>
    <circle cx="24.92" cy="160.91" r="5.00"/>
    <circle cx="37.54" cy="160.81" r="5.00"/>
    <circle cx="50.10" cy="161.19" r="5.00"/>
    <circle cx="62.76" cy="161.12" r="5.00"/>
    <circle cx="75.46" cy="161.03" r="5.00"/>
    <circle cx="14.49" cy="147.10" r="5.00"/>
    <circle cx="88.21" cy="160.91" r="5.00"/>
    <circle cx="27.28" cy="146.97" r="5.00"/>
    <circle cx="40.13" cy="146.81" r="5.00"/>
    <circle cx="101.06" cy="160.76" r="5.00"/>
    <circle cx="52.81" cy="147.59" r="5.00"/>
    <circle cx="65.79" cy="147.49" r="5.00"/>
    <circle cx="17.80" cy="133.44" r="5.00"/>
    <circle cx="30.89" cy="133.30" r="5.00"/>
    <circle cx="78.88" cy="147.38" r="5.00"/>
    <circle cx="44.10" cy="133.14" r="5.00"/>
    <circle cx="56.94" cy="134.35" r="5.00"/>
    <circle cx="92.15" cy="147.25" r="5.00"/>
    <circle cx="22.24" cy="120.10" r="5.00"/>
    <circle cx="35.73" cy="120.01" r="5.00"/>
    <circle cx="70.39" cy="134.32" r="5.00"/>
    <circle cx="105.70" cy="147.12" r="5.00"/>
    <circle cx="49.41" cy="119.92" r="5.00"/>
    <circle cx="84.08" cy="134.31" r="5.00"/>
    <circle cx="27.77" cy="107.18" r="5.00"/>
    <circle cx="62.45" cy="121.63" r="5.00"/>
    <circle cx="41.74" cy="107.21" r="5.00"/>
    <circle cx="98.11" cy="134.35" r="5.00"/>
    <circle cx="76.50" cy="121.77" r="5.00"/>
    <circle cx="34.36" cy="94.77" r="5.00"/>
    <circle cx="55.99" cy="107.30" r="5.00"/>
    <circle cx="69.26" cy="109.55" r="5.00"/>
    <circle cx="48.88" cy="95.01" r="5.00"/>
    <circle cx="90.95" cy="122.04" r="5.00"/>
    <circle cx="112.68" cy="134.51" r="5.00"/>
    <circle cx="41.95" cy="82.95" r="5.00"/>
    <circle cx="63.79" cy="95.38" r="5.00"/>
    <circle cx="84.05" cy="110.03" r="5.00"/>
    <circle cx="105.96" cy="122.50" r="5.00"/>
    <circle cx="57.10" cy="83.51" r="5.00"/>
    <circle cx="77.31" cy="98.26" r="5.00"/>
    <circle cx="50.51" cy="71.80" r="5.00"/>
    <circle cx="99.39" cy="110.78" r="5.00"/>
    <circle cx="72.73" cy="84.30" r="5.00"/>
    <circle cx="92.92" cy="99.26" r="5.00"/>
    <circle cx="66.33" cy="72.79" r="5.00"/>
    <circle cx="121.77" cy="123.34" r="5.00"/>
    <circle cx="86.51" cy="87.88" r="5.00"/>
    <circle cx="59.96" cy="61.40" r="5.00"/>
    <circle cx="115.50" cy="111.97" r="5.00"/>
    <circle cx="82.73" cy="74.16" r="5.00"/>
    <circle cx="109.24" cy="100.74" r="5.00"/>
    <circle cx="76.49" cy="62.96" r="5.00"/>
    <circle cx="70.25" cy="51.82" r="5.00"/>
    <circle cx="103.00" cy="89.60" r="5.00"/>
    <circle cx="96.75" cy="78.53" r="5.00"/>
    <circle cx="93.68" cy="65.05" r="5.00"/>
    <circle cx="87.49" cy="54.08" r="5.00"/>
    <circle cx="81.29" cy="43.13" r="5.00"/>
    <circle cx="132.69" cy="113.94" r="5.00"/>
    <circle cx="126.52" cy="103.00" r="5.00"/>
    <circle cx="120.34" cy="92.08" r="5.00"/>
    <circle cx="114.13" cy="81.19" r="5.00"/>
    <circle cx="107.92" cy="70.31" r="5.00"/>
    <circle cx="105.47" cy="57.08" r="5.00"/>
    <circle cx="99.25" cy="46.23" r="5.00"/>
    <circle cx="93.02" cy="35.39" r="5.00"/>
    <circle cx="119.90" cy="63.32" r="5.00"/>
    <circle cx="126.18" cy="74.15" r="5.00"/>
    <circle cx="132.47" cy="84.97" r="5.00"/>
    <circle cx="105.36" cy="28.66" r="5.00"/>
    <circle cx="138.78" cy="95.80" r="5.00"/>
    <circle cx="111.67" cy="39.48" r="5.00"/>
    <circle cx="118.00" cy="50.31" r="5.00"/>
    <circle cx="145.11" cy="106.62" r="5.00"/>
    <circle cx="118.21" cy="22.97" r="5.00"/>
    <circle cx="132.54" cy="57.63" r="5.00"/>
    <circle cx="124.65" cy="33.88" r="5.00"/>
    <circle cx="138.97" cy="68.56" r="5.00"/>
    <circle cx="131.13" cy="44.81" r="5.00"/>
    <circle cx="145.44" cy="79.53" r="5.00"/>
    <circle cx="151.98" cy="90.53" r="5.00"/>
    <circle cx="131.49" cy="18.37" r="5.00"/>
    <circle cx="138.09" cy="29.48" r="5.00"/>
    <circle cx="158.61" cy="101.61" r="5.00"/>
    <circle cx="145.72" cy="53.31" r="5.00"/>
    <circle cx="144.75" cy="40.64" r="5.00"/>
    <circle cx="152.33" cy="64.52" r="5.00"/>
    <circle cx="145.11" cy="14.90" r="5.00"/>
    <circle cx="159.02" cy="75.84" r="5.00"/>
    <circle cx="151.87" cy="26.30" r="5.00"/>
    <circle cx="159.28" cy="50.40" r="5.00"/>
    <circle cx="165.83" cy="87.33" r="5.00"/>
    <circle cx="158.71" cy="37.84" r="5.00"/>
    <circle cx="158.97" cy="12.57" r="5.00"/>
    <circle cx="166.07" cy="62.07" r="5.00"/>
    <circle cx="165.88" cy="24.39" r="5.00"/>
    <circle cx="172.80" cy="99.07" r="5.00"/>
    <circle cx="172.97" cy="73.98" r="5.00"/>
    <circle cx="173.07" cy="48.93" r="5.00"/>
    <circle cx="172.88" cy="36.43" r="5.00"/>
    <circle cx="172.97" cy="11.40" r="5.00"/>
    <circle cx="180.00" cy="23.75" r="5.00"/>
    <circle cx="180.00" cy="61.25" r="5.00"/>
    <circle cx="180.00" cy="86.25" r="5.00"/>
    <circle cx="187.03" cy="11.40" r="5.00"/>
    <circle cx="187.12" cy="36.43" r="5.00"/>
    <circle cx="186.93" cy="48.93" r="5.00"/>
    <circle cx="187.03" cy="73.98" r="5.00"/>
    <circle cx="187.20" cy="99.07" r="5.00"/>
    <circle cx="194.12" cy="24.39" r="5.00"/>
    <circle cx="193.93" cy="62.07" r="5.00"/>
    <circle cx="201.03" cy="12.57" r="5.00"/>
    <circle cx="201.29" cy="37.84" r="5.00"/>
    <circle cx="194.17" cy="87.33" r="5.00"/>
    <circle cx="200.72" cy="50.40" r="5.00"/>
    <circle cx="208.13" cy="26.30" r="5.00"/>
    <circle cx="200.98" cy="75.84" r="5.00"/>
    <circle cx="214.89" cy="14.90" r="5.00"/>
    <circle cx="207.67" cy="64.52" r="5.00"/>
    <circle cx="215.25" cy="40.64" r="5.00"/>
    <circle cx="214.28" cy="53.31" r="5.00"/>
    <circle cx="201.39" cy="101.61" r="5.00"/>
    <circle cx="221.91" cy="29.48" r="5.00"/>
    <circle cx="228.51" cy="18.37" r="5.00"/>
    <circle cx="208.02" cy="90.53" r="5.00"/>
    <circle cx="214.56" cy="79.53" r="5.00"/>
    <circle cx="228.87" cy="44.81" r="5.00"/>
    <circle cx="221.03" cy="68.56" r="5.00"/>
    <circle cx="235.35" cy="33.88" r="5.00"/>
    <circle cx="227.46" cy="57.63" r="5.00"/>
    <circle cx="241.79" cy="22.97" r="5.00"/>
    <circle cx="214.89" cy="106.62" r="5.00"/>
    <circle cx="242.00" cy="50.31" r="5.00"/>
    <circle cx="248.33" cy="39.48" r="5.00"/>
    <circle cx="221.22" cy="95.80" r="5.00"/>
    <circle cx="254.64" cy="28.66" r="5.00"/>
    <circle cx="227.53" cy="84.97" r="5.00"/>
    <circle cx="233.82" cy="74.15" r="5.00"/>
    <circle cx="240.10" cy="63.32" r="5.00"/>
    <circle cx="266.98" cy="35.39" r="5.00"/>
    <circle cx="260.75" cy="46.23" r="5.00"/>
    <circle cx="254.53" cy="57.08" r="5.00"/>
    <circle cx="252.08" cy="70.31" r="5.00"/>
    <circle cx="245.87" cy="81.19" r="5.00"/>
    <circle cx="239.66" cy="92.08" r="5.00"/>
    <circle cx="233.48" cy="103.00" r="5.00"/>
    <circle cx="227.31" cy="113.94" r="5.00"/>
    <circle cx="278.71" cy="43.13" r="5.00"/>
    <circle cx="272.51" cy="54.08" r="5.00"/>
    <circle cx="266.32" cy="65.05" r="5.00"/>
    <circle cx="263.25" cy="78.53" r="5.00"/>
    <circle cx="257.00" cy="89.60" r="5.00"/>
    <circle cx="289.75" cy="51.82" r="5.00"/>
    <circle cx="283.51" cy="62.96" r="5.00"/>
    <circle cx="250.76" cy="100.74" r="5.00"/>
    <circle cx="277.27" cy="74.16" r="5.00"/>
    <circle cx="244.50" cy="111.97" r="5.00"/>
    <circle cx="300.04" cy="61.40" r="5.00"/>
    <circle cx="273.49" cy="87.88" r="5.00"/>
    <circle cx="238.23" cy="123.34" r="5.00"/>
    <circle cx="293.67" cy="72.79" r="5.00"/>
    <circle cx="267.08" cy="99.26" r="5.00"/>
    <circle cx="287.27" cy="84.30" r="5.00"/>
    <circle cx="260.61" cy="110.78" r="5.00"/>
    <circle cx="309.49" cy="71.80" r="5.00"/>
    <circle cx="282.69" cy="98.26" r="5.00"/>
    <circle cx="302.90" cy="83.51" r="5.00"/>
    <circle cx="254.04" cy="122.50" r="5.00"/>
  </g>
  <g style="fill:#FFA2A2; stroke-width:0.00; stroke:#000000" id="Party2">
    <circle cx="275.95" cy="110.03" r="5.00"/>
    <circle cx="296.21" cy="95.38" r="5.00"/>
    <circle cx="318.05" cy="82.95" r="5.00"/>
    <circle cx="247.32" cy="134.51" r="5.00"/>
    <circle cx="269.05" cy="122.04" r="5.00"/>
    <circle cx="311.12" cy="95.01" r="5.00"/>
    <circle cx="290.74" cy="109.55" r="5.00"/>
    <circle cx="304.01" cy="107.30" r="5.00"/>
    <circle cx="325.64" cy="94.77" r="5.00"/>
    <circle cx="283.50" cy="121.77" r="5.00"/>
    <circle cx="261.89" cy="134.35" r="5.00"/>
    <circle cx="318.26" cy="107.21" r="5.00"/>
    <circle cx="297.55" cy="121.63" r="5.00"/>
    <circle cx="332.23" cy="107.18" r="5.00"/>
    <circle cx="275.92" cy="134.31" r="5.00"/>
    <circle cx="310.59" cy="119.92" r="5.00"/>
    <circle cx="254.30" cy="147.12" r="5.00"/>
    <circle cx="289.61" cy="134.32" r="5.00"/>
    <circle cx="324.27" cy="120.01" r="5.00"/>
    <circle cx="337.76" cy="120.10" r="5.00"/>
    <circle cx="267.85" cy="147.25" r="5.00"/>
    <circle cx="303.06" cy="134.35" r="5.00"/>
    <circle cx="315.90" cy="133.14" r="5.00"/>
    <circle cx="281.12" cy="147.38" r="5.00"/>
    <circle cx="329.11" cy="133.30" r="5.00"/>
    <circle cx="342.20" cy="133.44" r="5.00"/>
    <circle cx="294.21" cy="147.49" r="5.00"/>
    <circle cx="307.19" cy="147.59" r="5.00"/>
    <circle cx="258.94" cy="160.76" r="5.00"/>
    <circle cx="319.87" cy="146.81" r="5.00"/>
    <circle cx="332.72" cy="146.97" r="5.00"/>
    <circle cx="271.79" cy="160.91" r="5.00"/>
    <circle cx="345.51" cy="147.10" r="5.00"/>
    <circle cx="284.54" cy="161.03" r="5.00"/>
    <circle cx="297.24" cy="161.12" r="5.00"/>
    <circle cx="309.90" cy="161.19" r="5.00"/>
    <circle cx="322.46" cy="160.81" r="5.00"/>
    <circle cx="335.08" cy="160.91" r="5.00"/>
    <circle cx="347.68" cy="160.98" r="5.00"/>
    <circle cx="261.10" cy="175.01" r="5.00"/>
    <circle cx="273.62" cy="175.00" r="5.00"/>
    <circle cx="286.13" cy="175.00" r="5.00"/>
    <circle cx="298.64" cy="175.00" r="5.00"/>
    <circle cx="311.15" cy="175.00" r="5.00"/>
    <circle cx="323.66" cy="175.00" r="5.00"/>
    <circle cx="336.17" cy="175.00" r="5.00"/>
    <circle cx="348.68" cy="175.00" r="5.00"/>
  </g>
</g>
</svg>
